<svg viewBox="0 0 24 24" xmlns="http://www.w3.org/2000/svg" title="Twitter" aria-hidden="true"><path d="M23.64 4.94c-.83.37-1.73.62-2.67.73a4.67 4.67 0 0 0 2.05-2.58 9.3 9.3 0 0 1-2.96 1.13 4.66 4.66 0 0 0-7.94 4.25 13.23 13.23 0 0 1-9.6-4.87c-.4.7-.63 1.5-.63 2.35a4.66 4.66 0 0 0 2.07 3.87 4.65 4.65 0 0 1-2.11-.58v.06a4.66 4.66 0 0 0 3.74 4.57 4.7 4.7 0 0 1-2.1.08 4.66 4.66 0 0 0 4.34 3.23 9.35 9.35 0 0 1-5.78 2 9.5 9.5 0 0 1-1.11-.07 13.18 13.18 0 0 0 7.14 2.1c8.57 0 13.25-7.1 13.25-13.26l-.01-.6a9.47 9.47 0 0 0 2.32-2.41z"/></svg>